<svg xmlns="http://www.w3.org/2000/svg" xmlns:xlink="http://www.w3.org/1999/xlink" width="500" zoomAndPan="magnify" viewBox="0 0 375 374.999991" height="500" preserveAspectRatio="xMidYMid meet" version="1.0"><defs><g/></defs><g fill="#ffffff" fill-opacity="1"><g transform="translate(82.40262, 189.777381)"><g><path d="M -0.984375 0.078125 C -1.921875 0.078125 -2.390625 -0.742188 -2.390625 -2.390625 C -2.390625 -6.015625 -1.554688 -9.523438 0.109375 -12.921875 C 0.378906 -13.472656 0.738281 -13.75 1.1875 -13.75 C 1.820312 -13.75 2.140625 -13.414062 2.140625 -12.75 C 2.140625 -12.34375 1.738281 -10.765625 0.9375 -8.015625 C 0.238281 -5.648438 -0.285156 -3.335938 -0.640625 -1.078125 C -0.0664062 -2.085938 0.722656 -3.722656 1.734375 -5.984375 C 2.484375 -7.679688 3.285156 -9.398438 4.140625 -11.140625 C 4.992188 -12.878906 5.84375 -14.359375 6.6875 -15.578125 C 7.53125 -16.796875 8.300781 -17.40625 9 -17.40625 C 10.007812 -17.40625 10.644531 -16.28125 10.90625 -14.03125 C 11.164062 -11.78125 11.679688 -10.65625 12.453125 -10.65625 C 13.242188 -10.65625 14.328125 -11.28125 15.703125 -12.53125 C 15.867188 -12.695312 16.003906 -12.78125 16.109375 -12.78125 C 16.222656 -12.78125 16.28125 -12.707031 16.28125 -12.5625 C 16.28125 -12.414062 15.742188 -11.863281 14.671875 -10.90625 C 13.597656 -9.945312 12.5625 -9.46875 11.5625 -9.46875 C 10.257812 -9.46875 9.335938 -10.410156 8.796875 -12.296875 C 8.253906 -14.191406 7.894531 -15.140625 7.71875 -15.140625 C 7.3125 -15.140625 6.039062 -12.859375 3.90625 -8.296875 C 2.914062 -6.179688 1.96875 -4.253906 1.0625 -2.515625 C 0.15625 -0.785156 -0.523438 0.078125 -0.984375 0.078125 Z M -0.984375 0.078125 "/></g></g></g><g fill="#ffffff" fill-opacity="1"><g transform="translate(98.155617, 189.777381)"><g><path d="M 6.71875 -8.265625 C 6.976562 -9.523438 7.109375 -10.679688 7.109375 -11.734375 C 7.109375 -12.648438 6.957031 -13.410156 6.65625 -14.015625 C 6.363281 -14.617188 5.953125 -14.921875 5.421875 -14.921875 C 4.796875 -14.921875 4.289062 -14.632812 3.90625 -14.0625 C 3.519531 -13.5 3.328125 -12.84375 3.328125 -12.09375 C 3.328125 -11.25 3.585938 -10.457031 4.109375 -9.71875 C 4.640625 -8.988281 5.507812 -8.503906 6.71875 -8.265625 Z M 2.421875 -1.90625 C 3.234375 -1.90625 4.003906 -2.4375 4.734375 -3.5 C 5.472656 -4.5625 6.039062 -5.835938 6.4375 -7.328125 C 4.257812 -7.734375 2.90625 -8.984375 2.375 -11.078125 C 1.539062 -8.835938 1.109375 -6.6875 1.078125 -4.625 C 1.078125 -2.8125 1.523438 -1.90625 2.421875 -1.90625 Z M 2.84375 -15.0625 C 3.457031 -15.875 4.226562 -16.28125 5.15625 -16.28125 C 7.28125 -16.28125 8.34375 -14.617188 8.34375 -11.296875 C 8.34375 -10.316406 8.234375 -9.28125 8.015625 -8.1875 C 9.742188 -8.332031 11.445312 -8.898438 13.125 -9.890625 C 14.800781 -10.878906 16.054688 -11.890625 16.890625 -12.921875 C 17.015625 -12.992188 17.113281 -13.03125 17.1875 -13.03125 C 17.457031 -13.03125 17.59375 -12.921875 17.59375 -12.703125 C 17.59375 -12.609375 17.554688 -12.535156 17.484375 -12.484375 C 16.398438 -11.140625 14.925781 -9.960938 13.0625 -8.953125 C 11.195312 -7.941406 9.421875 -7.378906 7.734375 -7.265625 C 7.253906 -5.453125 6.515625 -3.894531 5.515625 -2.59375 C 4.515625 -1.289062 3.429688 -0.640625 2.265625 -0.640625 C 1.015625 -0.640625 0.0859375 -1.222656 -0.515625 -2.390625 C -1.128906 -3.566406 -1.4375 -4.9375 -1.4375 -6.5 C -1.4375 -8.476562 -1.03125 -10.378906 -0.21875 -12.203125 C 0.625 -14.160156 1.488281 -15.140625 2.375 -15.140625 C 2.53125 -15.140625 2.6875 -15.113281 2.84375 -15.0625 Z M 2.84375 -15.0625 "/></g></g></g><g fill="#ffffff" fill-opacity="1"><g transform="translate(114.789902, 189.777381)"><g><path d="M 0.140625 -3.421875 C 1.222656 -3.421875 3.488281 -5.601562 6.9375 -9.96875 C 6.21875 -12.394531 5.3125 -13.609375 4.21875 -13.609375 C 3.238281 -13.609375 2.253906 -12.597656 1.265625 -10.578125 C 0.160156 -8.285156 -0.390625 -6.25 -0.390625 -4.46875 C -0.390625 -3.769531 -0.210938 -3.421875 0.140625 -3.421875 Z M 8.765625 1.546875 C 7.878906 1.546875 7.203125 1.164062 6.734375 0.40625 C 6.265625 -0.34375 6.03125 -1.40625 6.03125 -2.78125 C 6.03125 -4.25 6.207031 -6.03125 6.5625 -8.125 C 3.5625 -4.226562 1.335938 -2.28125 -0.109375 -2.28125 C -1.378906 -2.28125 -2.015625 -3.382812 -2.015625 -5.59375 C -2.015625 -7.570312 -1.597656 -9.535156 -0.765625 -11.484375 C 0.222656 -13.765625 1.734375 -14.90625 3.765625 -14.90625 C 5.460938 -14.90625 6.6875 -13.875 7.4375 -11.8125 C 7.5625 -12.476562 7.742188 -13.1875 7.984375 -13.9375 C 8.273438 -14.875 8.800781 -15.34375 9.5625 -15.34375 C 10.425781 -15.34375 10.859375 -14.921875 10.859375 -14.078125 C 10.859375 -13.867188 10.65625 -13.1875 10.25 -12.03125 C 9.726562 -10.582031 9.226562 -8.867188 8.75 -6.890625 C 8.28125 -4.921875 8.046875 -3.285156 8.046875 -1.984375 C 8.046875 -0.535156 8.429688 0.1875 9.203125 0.1875 C 10.265625 0.1875 11.800781 -0.984375 13.8125 -3.328125 C 15.820312 -5.679688 17.503906 -7.992188 18.859375 -10.265625 C 19.960938 -12.109375 20.65625 -13.03125 20.9375 -13.03125 C 21.113281 -13.03125 21.203125 -12.945312 21.203125 -12.78125 C 21.203125 -12.65625 21.128906 -12.476562 20.984375 -12.25 C 20.328125 -11.226562 19.769531 -10.300781 19.3125 -9.46875 C 17.945312 -7.03125 16.21875 -4.546875 14.125 -2.015625 C 12.175781 0.359375 10.390625 1.546875 8.765625 1.546875 Z M 8.765625 1.546875 "/></g></g></g><g fill="#ffffff" fill-opacity="1"><g transform="translate(135.169653, 189.777381)"><g><path d="M 12.609375 1.5625 C 10.273438 1.5625 9.109375 -0.296875 9.109375 -4.015625 C 9.109375 -6.679688 9.441406 -9.375 10.109375 -12.09375 C 10.421875 -13.375 11.117188 -15.867188 12.203125 -19.578125 C 11.191406 -17.234375 10.179688 -15.078125 9.171875 -13.109375 C 5.703125 -5.890625 2.789062 -2.28125 0.4375 -2.28125 C -1.375 -2.28125 -2.28125 -3.382812 -2.28125 -5.59375 C -2.28125 -7.476562 -1.726562 -9.5 -0.625 -11.65625 C 0.46875 -13.820312 1.929688 -14.90625 3.765625 -14.90625 C 5.460938 -14.90625 6.675781 -13.882812 7.40625 -11.84375 L 7.546875 -12.09375 C 10.597656 -17.945312 13.398438 -24.398438 15.953125 -31.453125 C 16.972656 -34.273438 17.707031 -36.273438 18.15625 -37.453125 C 18.625 -38.722656 19.171875 -39.359375 19.796875 -39.359375 C 20.554688 -39.359375 20.9375 -39.023438 20.9375 -38.359375 C 20.9375 -37.703125 20.097656 -35.773438 18.421875 -32.578125 C 13.628906 -18.179688 11.234375 -8.378906 11.234375 -3.171875 C 11.234375 -0.941406 11.765625 0.171875 12.828125 0.171875 C 13.984375 0.171875 15.492188 -1.109375 17.359375 -3.671875 C 19.222656 -6.234375 20.84375 -8.535156 22.21875 -10.578125 C 23.320312 -12.210938 24.003906 -13.03125 24.265625 -13.03125 C 24.453125 -13.03125 24.546875 -12.957031 24.546875 -12.8125 C 24.546875 -12.695312 24.46875 -12.539062 24.3125 -12.34375 C 23.65625 -11.425781 23.097656 -10.597656 22.640625 -9.859375 C 21.273438 -7.671875 19.625 -5.21875 17.6875 -2.5 C 15.757812 0.207031 14.066406 1.5625 12.609375 1.5625 Z M 0.765625 -3.421875 C 2.015625 -3.421875 4 -5.816406 6.71875 -10.609375 C 6.039062 -12.609375 5.207031 -13.609375 4.21875 -13.609375 C 3.238281 -13.609375 2.238281 -12.648438 1.21875 -10.734375 C 0.207031 -8.828125 -0.296875 -6.921875 -0.296875 -5.015625 C -0.296875 -3.953125 0.0546875 -3.421875 0.765625 -3.421875 Z M 0.765625 -3.421875 "/></g></g></g><g fill="#ffffff" fill-opacity="1"><g transform="translate(158.854229, 189.777381)"><g><path d="M 1.109375 2.09375 C -1.097656 2.09375 -2.203125 0.515625 -2.203125 -2.640625 C -2.203125 -4.660156 -1.492188 -7.972656 -0.078125 -12.578125 C 1.328125 -17.191406 2.84375 -21.363281 4.46875 -25.09375 L -4.015625 -24.734375 C -4.367188 -24.734375 -4.546875 -24.832031 -4.546875 -25.03125 C -4.546875 -25.632812 -1.378906 -26.015625 4.953125 -26.171875 C 7.140625 -31.046875 8.65625 -33.484375 9.5 -33.484375 C 10.050781 -33.484375 10.328125 -33.238281 10.328125 -32.75 C 10.328125 -32.601562 10.28125 -32.445312 10.1875 -32.28125 C 9.632812 -31.125 8.734375 -29.09375 7.484375 -26.1875 L 10.65625 -26.25 C 12.726562 -26.25 14.484375 -26.203125 15.921875 -26.109375 C 16.335938 -26.085938 16.546875 -25.957031 16.546875 -25.71875 C 16.546875 -25.519531 16.347656 -25.421875 15.953125 -25.421875 C 14.078125 -25.398438 11.117188 -25.316406 7.078125 -25.171875 C 5.390625 -21.148438 3.785156 -16.898438 2.265625 -12.421875 C 0.554688 -7.484375 -0.296875 -3.945312 -0.296875 -1.8125 C -0.296875 -1.113281 -0.160156 -0.492188 0.109375 0.046875 C 0.378906 0.597656 0.835938 0.875 1.484375 0.875 C 2.640625 0.875 4.15625 -0.175781 6.03125 -2.28125 C 7.300781 -3.738281 8.859375 -5.597656 10.703125 -7.859375 C 12.546875 -10.128906 13.804688 -11.769531 14.484375 -12.78125 C 14.597656 -12.945312 14.738281 -13.03125 14.90625 -13.03125 C 15.101562 -13.03125 15.203125 -12.957031 15.203125 -12.8125 C 15.203125 -12.738281 15.164062 -12.632812 15.09375 -12.5 C 12.875 -8.976562 10.007812 -5.269531 6.5 -1.375 C 4.40625 0.9375 2.609375 2.09375 1.109375 2.09375 Z M 1.109375 2.09375 "/></g></g></g><g fill="#ffffff" fill-opacity="1"><g transform="translate(173.257763, 189.777381)"><g><path d="M 6.71875 -8.265625 C 6.976562 -9.523438 7.109375 -10.679688 7.109375 -11.734375 C 7.109375 -12.648438 6.957031 -13.410156 6.65625 -14.015625 C 6.363281 -14.617188 5.953125 -14.921875 5.421875 -14.921875 C 4.796875 -14.921875 4.289062 -14.632812 3.90625 -14.0625 C 3.519531 -13.5 3.328125 -12.84375 3.328125 -12.09375 C 3.328125 -11.25 3.585938 -10.457031 4.109375 -9.71875 C 4.640625 -8.988281 5.507812 -8.503906 6.71875 -8.265625 Z M 2.421875 -1.90625 C 3.234375 -1.90625 4.003906 -2.4375 4.734375 -3.5 C 5.472656 -4.5625 6.039062 -5.835938 6.4375 -7.328125 C 4.257812 -7.734375 2.90625 -8.984375 2.375 -11.078125 C 1.539062 -8.835938 1.109375 -6.6875 1.078125 -4.625 C 1.078125 -2.8125 1.523438 -1.90625 2.421875 -1.90625 Z M 2.84375 -15.0625 C 3.457031 -15.875 4.226562 -16.28125 5.15625 -16.28125 C 7.28125 -16.28125 8.34375 -14.617188 8.34375 -11.296875 C 8.34375 -10.316406 8.234375 -9.28125 8.015625 -8.1875 C 9.742188 -8.332031 11.445312 -8.898438 13.125 -9.890625 C 14.800781 -10.878906 16.054688 -11.890625 16.890625 -12.921875 C 17.015625 -12.992188 17.113281 -13.03125 17.1875 -13.03125 C 17.457031 -13.03125 17.59375 -12.921875 17.59375 -12.703125 C 17.59375 -12.609375 17.554688 -12.535156 17.484375 -12.484375 C 16.398438 -11.140625 14.925781 -9.960938 13.0625 -8.953125 C 11.195312 -7.941406 9.421875 -7.378906 7.734375 -7.265625 C 7.253906 -5.453125 6.515625 -3.894531 5.515625 -2.59375 C 4.515625 -1.289062 3.429688 -0.640625 2.265625 -0.640625 C 1.015625 -0.640625 0.0859375 -1.222656 -0.515625 -2.390625 C -1.128906 -3.566406 -1.4375 -4.9375 -1.4375 -6.5 C -1.4375 -8.476562 -1.03125 -10.378906 -0.21875 -12.203125 C 0.625 -14.160156 1.488281 -15.140625 2.375 -15.140625 C 2.53125 -15.140625 2.6875 -15.113281 2.84375 -15.0625 Z M 2.84375 -15.0625 "/></g></g></g><g fill="#ffffff" fill-opacity="1"><g transform="translate(189.892047, 189.777381)"><g><path d="M -0.71875 3.546875 C 0.4375 3.546875 1.742188 2.960938 3.203125 1.796875 C 4.660156 0.640625 5.390625 -0.546875 5.390625 -1.765625 C 5.390625 -2.753906 4.941406 -3.679688 4.046875 -4.546875 C 0.140625 -1.566406 -1.8125 0.875 -1.8125 2.78125 C -1.8125 3.289062 -1.445312 3.546875 -0.71875 3.546875 Z M -0.328125 5.046875 C -2.054688 5.046875 -2.921875 4.289062 -2.921875 2.78125 C -2.921875 0.46875 -0.875 -2.21875 3.21875 -5.28125 C 1.5 -6.644531 0.4375 -7.535156 0.03125 -7.953125 C -0.613281 -8.597656 -0.9375 -9.328125 -0.9375 -10.140625 C -0.9375 -11.234375 -0.410156 -12.351562 0.640625 -13.5 C 1.703125 -14.65625 2.96875 -15.703125 4.4375 -16.640625 C 4.875 -16.890625 5.296875 -17.015625 5.703125 -17.015625 C 6.429688 -17.015625 6.796875 -16.796875 6.796875 -16.359375 C 6.796875 -15.953125 6.382812 -15.507812 5.5625 -15.03125 C 2.351562 -13.238281 0.75 -11.585938 0.75 -10.078125 C 0.75 -9.671875 0.976562 -9.269531 1.4375 -8.875 L 4.59375 -6.28125 C 7.164062 -8.082031 10.097656 -9.890625 13.390625 -11.703125 C 14.597656 -12.378906 15.265625 -12.71875 15.390625 -12.71875 C 15.648438 -12.71875 15.78125 -12.59375 15.78125 -12.34375 C 15.78125 -12.195312 15.53125 -11.992188 15.03125 -11.734375 C 12.226562 -10.210938 9.023438 -8.144531 5.421875 -5.53125 C 6.617188 -4.375 7.21875 -3.144531 7.21875 -1.84375 C 7.21875 -0.664062 6.828125 0.4375 6.046875 1.46875 C 5.265625 2.507812 4.285156 3.363281 3.109375 4.03125 C 1.929688 4.707031 0.785156 5.046875 -0.328125 5.046875 Z M -0.328125 5.046875 "/></g></g></g><g fill="#ffffff" fill-opacity="1"><g transform="translate(204.984079, 189.777381)"><g><path d="M 8.34375 0.03125 C 6.53125 0.03125 5.625 -1.75 5.625 -5.3125 C 5.625 -6.050781 5.675781 -6.757812 5.78125 -7.4375 C 4.070312 -5.15625 2.4375 -4.015625 0.875 -4.015625 C -0.59375 -4.015625 -1.328125 -4.960938 -1.328125 -6.859375 C -1.328125 -8.109375 -1.140625 -9.347656 -0.765625 -10.578125 C -0.0664062 -12.867188 0.707031 -14.015625 1.5625 -14.015625 C 1.800781 -14.015625 2.015625 -13.910156 2.203125 -13.703125 C 2.390625 -13.503906 2.484375 -13.28125 2.484375 -13.03125 C 2.484375 -12.863281 2.414062 -12.601562 2.28125 -12.25 C 1.09375 -9.382812 0.5 -7.445312 0.5 -6.4375 C 0.5 -5.6875 0.742188 -5.3125 1.234375 -5.3125 C 3.015625 -5.3125 5.140625 -7.753906 7.609375 -12.640625 C 8.046875 -13.503906 8.546875 -13.9375 9.109375 -13.9375 C 9.867188 -13.9375 10.25 -13.476562 10.25 -12.5625 C 10.25 -12.175781 10.023438 -11.476562 9.578125 -10.46875 C 8.347656 -7.53125 7.734375 -5.269531 7.734375 -3.6875 C 7.734375 -1.90625 8.046875 -1.015625 8.671875 -1.015625 C 9.890625 -1.015625 12.1875 -3.476562 15.5625 -8.40625 C 17.6875 -11.488281 18.890625 -13.03125 19.171875 -13.03125 C 19.335938 -13.03125 19.421875 -12.957031 19.421875 -12.8125 C 19.421875 -12.625 18.847656 -11.710938 17.703125 -10.078125 L 16.28125 -7.875 C 12.820312 -2.601562 10.175781 0.03125 8.34375 0.03125 Z M 8.34375 0.03125 "/></g></g></g><g fill="#ffffff" fill-opacity="1"><g transform="translate(223.628803, 189.777381)"><g><path d="M 1.453125 -1.234375 C -0.984375 -1.234375 -2.203125 -2.757812 -2.203125 -5.8125 C -2.203125 -7.375 -1.753906 -9.144531 -0.859375 -11.125 C 0.316406 -13.675781 1.859375 -14.953125 3.765625 -14.953125 C 4.410156 -14.953125 4.941406 -14.765625 5.359375 -14.390625 C 5.773438 -14.015625 5.984375 -13.570312 5.984375 -13.0625 C 5.984375 -12.4375 5.742188 -11.8125 5.265625 -11.1875 C 5.128906 -11.039062 4.976562 -10.96875 4.8125 -10.96875 C 4.519531 -10.96875 4.375 -11.09375 4.375 -11.34375 C 4.375 -11.4375 4.421875 -11.546875 4.515625 -11.671875 C 4.734375 -11.972656 4.84375 -12.269531 4.84375 -12.5625 C 4.84375 -13.21875 4.601562 -13.546875 4.125 -13.546875 C 3.28125 -13.546875 2.367188 -12.5625 1.390625 -10.59375 C 0.410156 -8.632812 -0.078125 -6.789062 -0.078125 -5.0625 C -0.078125 -3.269531 0.488281 -2.375 1.625 -2.375 C 3.519531 -2.375 6.171875 -4.460938 9.578125 -8.640625 C 11.085938 -10.503906 12.144531 -11.898438 12.75 -12.828125 C 12.84375 -12.984375 12.953125 -13.0625 13.078125 -13.0625 C 13.242188 -13.0625 13.335938 -12.957031 13.359375 -12.75 C 13.359375 -12.414062 12.289062 -10.882812 10.15625 -8.15625 C 6.5625 -3.539062 3.660156 -1.234375 1.453125 -1.234375 Z M 1.453125 -1.234375 "/></g></g></g><g fill="#ffffff" fill-opacity="1"><g transform="translate(236.269763, 189.777381)"><g><path d="M 1.453125 -1.234375 C -0.984375 -1.234375 -2.203125 -2.757812 -2.203125 -5.8125 C -2.203125 -7.375 -1.753906 -9.144531 -0.859375 -11.125 C 0.316406 -13.675781 1.859375 -14.953125 3.765625 -14.953125 C 4.410156 -14.953125 4.941406 -14.765625 5.359375 -14.390625 C 5.773438 -14.015625 5.984375 -13.570312 5.984375 -13.0625 C 5.984375 -12.4375 5.742188 -11.8125 5.265625 -11.1875 C 5.128906 -11.039062 4.976562 -10.96875 4.8125 -10.96875 C 4.519531 -10.96875 4.375 -11.09375 4.375 -11.34375 C 4.375 -11.4375 4.421875 -11.546875 4.515625 -11.671875 C 4.734375 -11.972656 4.84375 -12.269531 4.84375 -12.5625 C 4.84375 -13.21875 4.601562 -13.546875 4.125 -13.546875 C 3.28125 -13.546875 2.367188 -12.5625 1.390625 -10.59375 C 0.410156 -8.632812 -0.078125 -6.789062 -0.078125 -5.0625 C -0.078125 -3.269531 0.488281 -2.375 1.625 -2.375 C 3.519531 -2.375 6.171875 -4.460938 9.578125 -8.640625 C 11.085938 -10.503906 12.144531 -11.898438 12.75 -12.828125 C 12.84375 -12.984375 12.953125 -13.0625 13.078125 -13.0625 C 13.242188 -13.0625 13.335938 -12.957031 13.359375 -12.75 C 13.359375 -12.414062 12.289062 -10.882812 10.15625 -8.15625 C 6.5625 -3.539062 3.660156 -1.234375 1.453125 -1.234375 Z M 1.453125 -1.234375 "/></g></g></g><g fill="#ffffff" fill-opacity="1"><g transform="translate(248.910723, 189.777381)"><g><path d="M 2.953125 -11.453125 C 3.585938 -11.453125 4.097656 -11.695312 4.484375 -12.1875 C 4.867188 -12.675781 5.0625 -13.1875 5.0625 -13.71875 C 5.0625 -14.363281 4.851562 -14.6875 4.4375 -14.6875 C 3.757812 -14.6875 2.914062 -13.753906 1.90625 -11.890625 C 2.25 -11.597656 2.597656 -11.453125 2.953125 -11.453125 Z M 1.734375 -0.25 C -0.691406 -0.25 -1.90625 -2.046875 -1.90625 -5.640625 C -1.90625 -7.804688 -1.332031 -10.082031 -0.1875 -12.46875 C 0.945312 -14.863281 2.414062 -16.0625 4.21875 -16.0625 C 4.96875 -16.0625 5.519531 -15.859375 5.875 -15.453125 C 6.238281 -15.046875 6.421875 -14.539062 6.421875 -13.9375 C 6.421875 -12.96875 6.15625 -12.160156 5.625 -11.515625 C 4.976562 -10.742188 4.160156 -10.359375 3.171875 -10.359375 C 2.546875 -10.359375 1.984375 -10.53125 1.484375 -10.875 C 0.679688 -9.019531 0.28125 -7.066406 0.28125 -5.015625 C 0.28125 -2.660156 0.910156 -1.484375 2.171875 -1.484375 C 3.898438 -1.484375 6.675781 -3.851562 10.5 -8.59375 C 12 -10.488281 13.046875 -11.882812 13.640625 -12.78125 C 13.742188 -12.945312 13.851562 -13.03125 13.96875 -13.03125 C 14.132812 -13.03125 14.21875 -12.945312 14.21875 -12.78125 C 14.21875 -12.425781 13.160156 -10.851562 11.046875 -8.0625 C 7.097656 -2.851562 3.992188 -0.25 1.734375 -0.25 Z M 1.734375 -0.25 "/></g></g></g><g fill="#ffffff" fill-opacity="1"><g transform="translate(262.405423, 189.777381)"><g><path d="M -0.71875 3.546875 C 0.4375 3.546875 1.742188 2.960938 3.203125 1.796875 C 4.660156 0.640625 5.390625 -0.546875 5.390625 -1.765625 C 5.390625 -2.753906 4.941406 -3.679688 4.046875 -4.546875 C 0.140625 -1.566406 -1.8125 0.875 -1.8125 2.78125 C -1.8125 3.289062 -1.445312 3.546875 -0.71875 3.546875 Z M -0.328125 5.046875 C -2.054688 5.046875 -2.921875 4.289062 -2.921875 2.78125 C -2.921875 0.46875 -0.875 -2.21875 3.21875 -5.28125 C 1.5 -6.644531 0.4375 -7.535156 0.03125 -7.953125 C -0.613281 -8.597656 -0.9375 -9.328125 -0.9375 -10.140625 C -0.9375 -11.234375 -0.410156 -12.351562 0.640625 -13.5 C 1.703125 -14.65625 2.96875 -15.703125 4.4375 -16.640625 C 4.875 -16.890625 5.296875 -17.015625 5.703125 -17.015625 C 6.429688 -17.015625 6.796875 -16.796875 6.796875 -16.359375 C 6.796875 -15.953125 6.382812 -15.507812 5.5625 -15.03125 C 2.351562 -13.238281 0.75 -11.585938 0.75 -10.078125 C 0.75 -9.671875 0.976562 -9.269531 1.4375 -8.875 L 4.59375 -6.28125 C 7.164062 -8.082031 10.097656 -9.890625 13.390625 -11.703125 C 14.597656 -12.378906 15.265625 -12.71875 15.390625 -12.71875 C 15.648438 -12.71875 15.78125 -12.59375 15.78125 -12.34375 C 15.78125 -12.195312 15.53125 -11.992188 15.03125 -11.734375 C 12.226562 -10.210938 9.023438 -8.144531 5.421875 -5.53125 C 6.617188 -4.375 7.21875 -3.144531 7.21875 -1.84375 C 7.21875 -0.664062 6.828125 0.4375 6.046875 1.46875 C 5.265625 2.507812 4.285156 3.363281 3.109375 4.03125 C 1.929688 4.707031 0.785156 5.046875 -0.328125 5.046875 Z M -0.328125 5.046875 "/></g></g></g><g fill="#ffffff" fill-opacity="1"><g transform="translate(277.497455, 189.777381)"><g><path d="M -0.71875 3.546875 C 0.4375 3.546875 1.742188 2.960938 3.203125 1.796875 C 4.660156 0.640625 5.390625 -0.546875 5.390625 -1.765625 C 5.390625 -2.753906 4.941406 -3.679688 4.046875 -4.546875 C 0.140625 -1.566406 -1.8125 0.875 -1.8125 2.78125 C -1.8125 3.289062 -1.445312 3.546875 -0.71875 3.546875 Z M -0.328125 5.046875 C -2.054688 5.046875 -2.921875 4.289062 -2.921875 2.78125 C -2.921875 0.46875 -0.875 -2.21875 3.21875 -5.28125 C 1.5 -6.644531 0.4375 -7.535156 0.03125 -7.953125 C -0.613281 -8.597656 -0.9375 -9.328125 -0.9375 -10.140625 C -0.9375 -11.234375 -0.410156 -12.351562 0.640625 -13.5 C 1.703125 -14.65625 2.96875 -15.703125 4.4375 -16.640625 C 4.875 -16.890625 5.296875 -17.015625 5.703125 -17.015625 C 6.429688 -17.015625 6.796875 -16.796875 6.796875 -16.359375 C 6.796875 -15.953125 6.382812 -15.507812 5.5625 -15.03125 C 2.351562 -13.238281 0.75 -11.585938 0.75 -10.078125 C 0.75 -9.671875 0.976562 -9.269531 1.4375 -8.875 L 4.59375 -6.28125 C 7.164062 -8.082031 10.097656 -9.890625 13.390625 -11.703125 C 14.597656 -12.378906 15.265625 -12.71875 15.390625 -12.71875 C 15.648438 -12.71875 15.78125 -12.59375 15.78125 -12.34375 C 15.78125 -12.195312 15.53125 -11.992188 15.03125 -11.734375 C 12.226562 -10.210938 9.023438 -8.144531 5.421875 -5.53125 C 6.617188 -4.375 7.21875 -3.144531 7.21875 -1.84375 C 7.21875 -0.664062 6.828125 0.4375 6.046875 1.46875 C 5.265625 2.507812 4.285156 3.363281 3.109375 4.03125 C 1.929688 4.707031 0.785156 5.046875 -0.328125 5.046875 Z M -0.328125 5.046875 "/></g></g></g></svg>